<?xml version="1.0" encoding="UTF-8" standalone="no"?>
<svg
   width="742.36304"
   height="742.36395"
   version="1.1"
   viewBox="0 0 196.41766 196.41481"
   xml:space="preserve"
   id="svg11"
   xmlns="http://www.w3.org/2000/svg"
   xmlns:svg="http://www.w3.org/2000/svg"><defs
     id="defs6" /><path
     d="m 177.25787,19.156344 c -1.94939,0.588923 -4.29333,1.53601 -7.07588,2.889619 C 147.45883,33.099839 103.41251,39.525975 66.209391,50.80779 51.137641,55.379066 37.373886,64.447387 28.573405,74.211014 0.26627384,105.61643 7.8279221,144.31352 29.666015,166.58804 c 0.02692,0.0274 0.05468,0.0542 0.08171,0.0817 0.02744,0.0268 0.05416,0.0547 0.08171,0.0817 22.274091,21.83851 60.979687,29.4106 92.385185,1.10256 9.76344,-8.80065 18.83163,-22.56462 23.40277,-37.63671 11.28316,-37.205414 17.70918,-81.252579 28.76127,-103.974611 1.35358,-2.782603 2.29046,-5.13678 2.87937,-7.086212 z"
     fill="none"
     id="path6"
     style="fill:none;stroke-width:13.2292;stroke-dasharray:none" /><path
     d="m 111.33527,85.078736 c -0.89697,0.270988 -1.97549,0.706764 -3.25582,1.329598 -10.455604,5.086216 -30.722623,8.043073 -47.840888,13.234172 -6.934958,2.103384 -13.268072,6.275984 -17.317435,10.768524 -13.024954,14.45056 -9.545615,32.25625 0.502741,42.50542 0.01253,0.0125 0.02505,0.025 0.03761,0.0376 0.01253,0.0125 0.02505,0.025 0.03761,0.0376 10.248974,10.04855 28.058567,13.53269 42.50917,0.50732 4.492448,-4.04944 8.664994,-10.38265 10.768312,-17.31777 5.19172,-17.11932 8.14852,-37.38673 13.23391,-47.841813 0.62283,-1.280359 1.05391,-2.363586 1.32489,-3.260575 z"
     fill="url(#linearGradient14)"
     stroke="currentColor"
     stroke-width="0.660465"
     id="path7"
     style="fill:none;stroke-width:13.2292;stroke-linecap:round;stroke-linejoin:round;stroke-dasharray:none" /><path
     d="m 136.92335,59.489481 c -0.20587,0.06214 -0.45134,0.161112 -0.74527,0.304073 -2.39989,1.167472 -7.05253,1.848789 -10.98221,3.040713 -1.592,0.48253 -3.04697,1.443249 -3.97655,2.474185 -2.9897,3.316948 -2.18572,7.400073 0.11941,9.754044 l 0.0182,0.01811 c 2.35389,2.305098 6.43708,3.108945 9.75385,0.119376 1.03104,-0.929705 1.99173,-2.384706 2.47414,-3.976619 1.19171,-3.929459 1.87335,-8.58245 3.04065,-10.982421 0.1431,-0.294016 0.23593,-0.545351 0.29811,-0.751252 z"
     fill="none"
     stroke="#004d70"
     stroke-width="0.294272"
     id="path8"
     style="fill:currentColor;fill-opacity:1;stroke:none;stroke-width:16.788;stroke-linecap:round;stroke-linejoin:round;stroke-dasharray:none" /><path
     d="M 189.80399,6.6132837 C 105.46496,50.154518 69.405566,27.983864 26.326062,70.198216 -4.0229188,103.86898 3.7916491,145.29834 26.970727,169.44969 c 24.150044,23.177 65.576151,30.98951 99.244743,0.63987 42.21494,-43.07894 20.04717,-79.136576 63.58852,-163.4762763 z"
     fill="none"
     stroke="currentColor"
     stroke-width="0.499795"
     id="path9"
     style="fill:none;stroke-width:13.2292;stroke-linecap:round;stroke-linejoin:round;stroke-dasharray:none" /></svg>
