<?xml version="1.0" encoding="UTF-8" standalone="no"?>

<svg
   width="716.66669"
   height="716.66669"
   viewBox="0 0 21.500001 21.500001"
   fill="none"
   version="1.1"
   id="svg3"
   xmlns="http://www.w3.org/2000/svg"
   xmlns:svg="http://www.w3.org/2000/svg">
  <defs
     id="defs3" />
  <path
     d="m 6.75,9.25 h 8"
     stroke="currentColor"
     stroke-width="1.5"
     stroke-linecap="round"
     id="path1" />
  <path
     d="m 6.75,12.75 h 5.5"
     stroke="currentColor"
     stroke-width="1.5"
     stroke-linecap="round"
     id="path2" />
  <path
     d="M 15.75,2.08782 C 14.2791,1.23697 12.5714,0.75 10.75,0.75 c -5.52285,0 -10,4.47715 -10,10 0,1.5997 0.37562,3.1116 1.04346,4.4525 0.17748,0.3563 0.23655,0.7636 0.13366,1.1481 l -0.59561,2.2261 c -0.25856,0.9663 0.6255,1.8503 1.59184,1.5918 L 5.14939,19.5729 C 5.53393,19.47 5.94121,19.5291 6.29753,19.7065 7.63837,20.3744 9.1503,20.75 10.75,20.75 c 5.5228,0 10,-4.4772 10,-10 0,-1.8214 -0.487,-3.52913 -1.3378,-5"
     stroke="currentColor"
     stroke-width="1.5"
     stroke-linecap="round"
     id="path3" />
</svg>
