<?xml version="1.0" encoding="UTF-8" standalone="no"?>

<svg
   width="614.40002"
   height="614.40002"
   viewBox="0 0 19.200001 19.200001"
   fill="none"
   version="1.1"
   id="svg2"
   xmlns="http://www.w3.org/2000/svg"
   xmlns:svg="http://www.w3.org/2000/svg">
  <defs
     id="defs2" />
  <path
     d="M 11.3624,2.50607 10.9714,1.52848 C 10.7471,0.96771002 10.204,0.60000002 9.6,0.60000002 c -0.604,0 -1.1471,0.36771 -1.3714,0.92847998 L 7.8376,2.50607 C 7.6857,2.88585 7.3869,3.18826 7.00901,3.3448 6.63111,3.50133 6.20603,3.49874 5.83006,3.33761 L 4.86229,2.92285 C 4.30716,2.68494 3.66311,2.80897 3.23604,3.23604 2.80897,3.66311 2.68494,4.30716 2.92285,4.86229 L 3.33761,5.83006 C 3.49874,6.20602 3.50133,6.63111 3.3448,7.00901 3.18826,7.3869 2.88585,7.6857 2.50607,7.8376 L 1.52848,8.2286 C 0.96771002,8.4529 0.60000002,8.996 0.60000002,9.6 c 0,0.604 0.36771,1.1471 0.92847998,1.3714 l 0.97759,0.391 c 0.37978,0.1519 0.68219,0.4507 0.83873,0.8286 0.15653,0.3779 0.15394,0.803 -0.00719,1.1789 l -0.41476,0.9678 c -0.23791,0.5551 -0.11388,1.1992 0.31319,1.6263 0.42707,0.427 1.07112,0.5511 1.62625,0.3132 l 0.96777,-0.4148 c 0.37597,-0.1611 0.80105,-0.1637 1.17895,-0.0072 0.37789,0.1565 0.67669,0.4589 0.82859,0.8387 l 0.391,0.9776 C 8.4529,18.2323 8.996,18.6 9.6,18.6 c 0.604,0 1.1471,-0.3677 1.3714,-0.9285 l 0.391,-0.9776 c 0.1519,-0.3798 0.4507,-0.6822 0.8286,-0.8387 0.3779,-0.1565 0.803,-0.1539 1.1789,0.0072 l 0.9678,0.4147 c 0.5551,0.238 1.1992,0.1139 1.6263,-0.3131 0.427,-0.4271 0.5511,-1.0712 0.3131,-1.6263 l -0.4147,-0.9678 c -0.1611,-0.3759 -0.1637,-0.801 -0.0072,-1.1789 0.1565,-0.3779 0.4589,-0.6767 0.8387,-0.8286 l 0.9776,-0.391 C 18.2323,10.7471 18.6,10.204 18.6,9.6 18.6,8.996 18.2323,8.4529 17.6715,8.2286 L 16.6939,7.8376 C 16.3141,7.6857 16.0117,7.3869 15.8552,7.00901 15.6987,6.63111 15.7013,6.20602 15.8624,5.83006 L 16.2772,4.86229 C 16.5151,4.30716 16.391,3.66311 15.964,3.23604 15.5369,2.80897 14.8928,2.68494 14.3377,2.92285 L 13.3699,3.33761 C 12.994,3.49874 12.5689,3.50133 12.191,3.3448 11.8131,3.18826 11.5143,2.88585 11.3624,2.50607 Z"
     stroke="currentColor"
     stroke-width="1.2"
     id="path1" />
  <path
     d="m 13.6,9.6 c 0,2.2091 -1.7909,4 -4,4 -2.2091,0 -4,-1.7909 -4,-4 0,-2.2091 1.7909,-4 4,-4 2.2091,0 4,1.7909 4,4 z"
     stroke="currentColor"
     stroke-width="1.2"
     id="path2" />
</svg>
